<?xml version="1.0" encoding="UTF-8"?>
<svg xmlns="http://www.w3.org/2000/svg" xmlns:xlink="http://www.w3.org/1999/xlink" width="858px" height="128px" viewBox="0 0 858 128" version="1.1">
<g id="surface1">
<rect x="0" y="0" width="858" height="128" style="fill:rgb(17.254902%,2.352941%,27.843137%);fill-opacity:1;stroke:none;"/>
<path style=" stroke:none;fill-rule:nonzero;fill:rgb(36.078431%,3.921569%,96.078431%);fill-opacity:1;" d="M 0 94.152344 L 171.601562 90.738281 L 343.199219 89.316406 L 514.800781 96.140625 L 686.398438 82.773438 L 858 92.730469 L 858 128.285156 L 0 128.285156 Z M 0 94.152344 "/>
<path style=" stroke:none;fill-rule:nonzero;fill:rgb(25.490196%,9.803922%,73.333333%);fill-opacity:1;" d="M 0 88.460938 L 171.601562 93.011719 L 343.199219 100.410156 L 514.800781 96.140625 L 686.398438 93.867188 L 858 102.96875 L 858 128.285156 L 0 128.285156 Z M 0 88.460938 "/>
<path style=" stroke:none;fill-rule:nonzero;fill:rgb(17.647059%,9.803922%,50.980392%);fill-opacity:1;" d="M 0 103.539062 L 171.601562 103.820312 L 343.199219 105.8125 L 514.800781 103.539062 L 686.398438 104.105469 L 858 108.089844 L 858 128.285156 L 0 128.285156 Z M 0 103.539062 "/>
<path style=" stroke:none;fill-rule:nonzero;fill:rgb(11.764706%,7.843137%,29.803922%);fill-opacity:1;" d="M 0 116.621094 L 171.601562 114.0625 L 343.199219 115.199219 L 514.800781 113.777344 L 686.398438 106.097656 L 858 110.933594 L 858 128.285156 L 0 128.285156 Z M 0 116.621094 "/>
<path style=" stroke:none;fill-rule:nonzero;fill:rgb(5.882353%,2.352941%,10.588235%);fill-opacity:1;" d="M 0 116.621094 L 171.601562 117.191406 L 343.199219 122.59375 L 514.800781 118.613281 L 686.398438 118.042969 L 858 118.898438 L 858 128.285156 L 0 128.285156 Z M 0 116.621094 "/>
</g>
</svg>
