<svg id="visual" viewBox="0 0 900 450" width="900" height="450" xmlns="http://www.w3.org/2000/svg" xmlns:xlink="http://www.w3.org/1999/xlink" version="1.1"><path d="M0 91L82 28L164 51L245 87L327 73L409 37L491 73L573 33L655 33L736 69L818 33L900 46L900 0L818 0L736 0L655 0L573 0L491 0L409 0L327 0L245 0L164 0L82 0L0 0Z" fill="#2c0647"></path><path d="M0 132L82 78L164 69L245 109L327 96L409 87L491 109L573 51L655 64L736 118L818 60L900 82L900 44L818 31L736 67L655 31L573 31L491 71L409 35L327 71L245 85L164 49L82 26L0 89Z" fill="#400d57"></path><path d="M0 217L82 168L164 208L245 181L327 163L409 199L491 181L573 163L655 186L736 226L818 199L900 150L900 80L818 58L736 116L655 62L573 49L491 107L409 85L327 94L245 107L164 67L82 76L0 130Z" fill="#561566"></path><path d="M0 231L82 181L164 226L245 204L327 186L409 222L491 204L573 195L655 204L736 240L818 222L900 186L900 148L818 197L736 224L655 184L573 161L491 179L409 197L327 161L245 179L164 206L82 166L0 215Z" fill="#6c1d76"></path><path d="M0 258L82 222L164 285L245 231L327 235L409 249L491 262L573 262L655 262L736 303L818 258L900 240L900 184L818 220L736 238L655 202L573 193L491 202L409 220L327 184L245 202L164 224L82 179L0 229Z" fill="#711e79"></path><path d="M0 285L82 271L164 343L245 253L327 271L409 267L491 316L573 289L655 321L736 352L818 312L900 294L900 238L818 256L736 301L655 260L573 260L491 260L409 247L327 233L245 229L164 283L82 220L0 256Z" fill="#6c1d76"></path><path d="M0 303L82 307L164 357L245 289L327 294L409 294L491 339L573 307L655 343L736 388L818 348L900 307L900 292L818 310L736 350L655 319L573 287L491 314L409 265L327 269L245 251L164 341L82 269L0 283Z" fill="#561566"></path><path d="M0 343L82 339L164 384L245 307L327 334L409 330L491 370L573 325L655 357L736 402L818 370L900 348L900 305L818 346L736 386L655 341L573 305L491 337L409 292L327 292L245 287L164 355L82 305L0 301Z" fill="#400d57"></path><path d="M0 451L82 451L164 451L245 451L327 451L409 451L491 451L573 451L655 451L736 451L818 451L900 451L900 346L818 368L736 400L655 355L573 323L491 368L409 328L327 332L245 305L164 382L82 337L0 341Z" fill="#2c0647"></path></svg>