<svg id="visual" viewBox="0 0 900 450" width="900" height="450" xmlns="http://www.w3.org/2000/svg" xmlns:xlink="http://www.w3.org/1999/xlink" version="1.1"><rect x="0" y="0" width="900" height="450" fill="#2C0647"></rect><path d="M0 331L180 319L360 314L540 338L720 291L900 326L900 451L720 451L540 451L360 451L180 451L0 451Z" fill="#5c0af5"></path><path d="M0 311L180 327L360 353L540 338L720 330L900 362L900 451L720 451L540 451L360 451L180 451L0 451Z" fill="#4119bb"></path><path d="M0 364L180 365L360 372L540 364L720 366L900 380L900 451L720 451L540 451L360 451L180 451L0 451Z" fill="#2d1982"></path><path d="M0 410L180 401L360 405L540 400L720 373L900 390L900 451L720 451L540 451L360 451L180 451L0 451Z" fill="#1e144c"></path><path d="M0 410L180 412L360 431L540 417L720 415L900 418L900 451L720 451L540 451L360 451L180 451L0 451Z" fill="#0f061b"></path></svg>