<svg id="visual" viewBox="0 0 960 300" width="960" height="300" xmlns="http://www.w3.org/2000/svg" xmlns:xlink="http://www.w3.org/1999/xlink" version="1.1"><rect x="0" y="0" width="960" height="300" fill="#001220"></rect><path d="M0 103L22.8 103.5C45.7 104 91.3 105 137 108.2C182.7 111.3 228.3 116.7 274 111.8C319.7 107 365.3 92 411.2 87.5C457 83 503 89 548.8 89.8C594.7 90.7 640.3 86.3 686 86C731.7 85.7 777.3 89.3 823 91.8C868.7 94.3 914.3 95.7 937.2 96.3L960 97L960 0L937.2 0C914.3 0 868.7 0 823 0C777.3 0 731.7 0 686 0C640.3 0 594.7 0 548.8 0C503 0 457 0 411.2 0C365.3 0 319.7 0 274 0C228.3 0 182.7 0 137 0C91.3 0 45.7 0 22.8 0L0 0Z" fill="#c726a7"></path><path d="M0 85L22.8 85C45.7 85 91.3 85 137 86.2C182.7 87.3 228.3 89.7 274 85.8C319.7 82 365.3 72 411.2 69.3C457 66.7 503 71.3 548.8 76.2C594.7 81 640.3 86 686 89.5C731.7 93 777.3 95 823 93C868.7 91 914.3 85 937.2 82L960 79L960 0L937.2 0C914.3 0 868.7 0 823 0C777.3 0 731.7 0 686 0C640.3 0 594.7 0 548.8 0C503 0 457 0 411.2 0C365.3 0 319.7 0 274 0C228.3 0 182.7 0 137 0C91.3 0 45.7 0 22.8 0L0 0Z" fill="#a41c9b"></path><path d="M0 57L22.8 55.8C45.7 54.7 91.3 52.3 137 51.5C182.7 50.7 228.3 51.3 274 51.2C319.7 51 365.3 50 411.2 54.2C457 58.3 503 67.7 548.8 71.3C594.7 75 640.3 73 686 67.3C731.7 61.7 777.3 52.3 823 53.7C868.7 55 914.3 67 937.2 73L960 79L960 0L937.2 0C914.3 0 868.7 0 823 0C777.3 0 731.7 0 686 0C640.3 0 594.7 0 548.8 0C503 0 457 0 411.2 0C365.3 0 319.7 0 274 0C228.3 0 182.7 0 137 0C91.3 0 45.7 0 22.8 0L0 0Z" fill="#82138d"></path><path d="M0 40L22.8 41.7C45.7 43.3 91.3 46.7 137 49C182.7 51.3 228.3 52.7 274 53C319.7 53.3 365.3 52.7 411.2 52C457 51.3 503 50.7 548.8 50C594.7 49.3 640.3 48.7 686 46.3C731.7 44 777.3 40 823 36.8C868.7 33.7 914.3 31.3 937.2 30.2L960 29L960 0L937.2 0C914.3 0 868.7 0 823 0C777.3 0 731.7 0 686 0C640.3 0 594.7 0 548.8 0C503 0 457 0 411.2 0C365.3 0 319.7 0 274 0C228.3 0 182.7 0 137 0C91.3 0 45.7 0 22.8 0L0 0Z" fill="#600b7e"></path><path d="M0 22L22.8 22.8C45.7 23.7 91.3 25.3 137 25.8C182.7 26.3 228.3 25.7 274 26.3C319.7 27 365.3 29 411.2 28.8C457 28.7 503 26.3 548.8 24.8C594.7 23.3 640.3 22.7 686 21.3C731.7 20 777.3 18 823 18.2C868.7 18.3 914.3 20.7 937.2 21.8L960 23L960 0L937.2 0C914.3 0 868.7 0 823 0C777.3 0 731.7 0 686 0C640.3 0 594.7 0 548.8 0C503 0 457 0 411.2 0C365.3 0 319.7 0 274 0C228.3 0 182.7 0 137 0C91.3 0 45.7 0 22.8 0L0 0Z" fill="#3f056d"></path></svg>