<svg id="visual" viewBox="0 0 900 600" width="900" height="600" xmlns="http://www.w3.org/2000/svg" xmlns:xlink="http://www.w3.org/1999/xlink" version="1.1"><path d="M0 55L69 55L69 49L138 49L138 43L208 43L208 85L277 85L277 85L346 85L346 97L415 97L415 97L485 97L485 31L554 31L554 67L623 67L623 37L692 37L692 55L762 55L762 31L831 31L831 61L900 61L900 67L900 0L900 0L831 0L831 0L762 0L762 0L692 0L692 0L623 0L623 0L554 0L554 0L485 0L485 0L415 0L415 0L346 0L346 0L277 0L277 0L208 0L208 0L138 0L138 0L69 0L69 0L0 0Z" fill="#2c0647"></path><path d="M0 331L69 331L69 271L138 271L138 217L208 217L208 199L277 199L277 253L346 253L346 205L415 205L415 361L485 361L485 301L554 301L554 199L623 199L623 241L692 241L692 163L762 163L762 241L831 241L831 271L900 271L900 217L900 65L900 59L831 59L831 29L762 29L762 53L692 53L692 35L623 35L623 65L554 65L554 29L485 29L485 95L415 95L415 95L346 95L346 83L277 83L277 83L208 83L208 41L138 41L138 47L69 47L69 53L0 53Z" fill="#410b59"></path><path d="M0 391L69 391L69 361L138 361L138 265L208 265L208 289L277 289L277 307L346 307L346 319L415 319L415 415L485 415L485 355L554 355L554 295L623 295L623 331L692 331L692 247L762 247L762 349L831 349L831 331L900 331L900 265L900 215L900 269L831 269L831 239L762 239L762 161L692 161L692 239L623 239L623 197L554 197L554 299L485 299L485 359L415 359L415 203L346 203L346 251L277 251L277 197L208 197L208 215L138 215L138 269L69 269L69 329L0 329Z" fill="#57116a"></path><path d="M0 421L69 421L69 415L138 415L138 349L208 349L208 367L277 367L277 373L346 373L346 373L415 373L415 445L485 445L485 421L554 421L554 367L623 367L623 385L692 385L692 331L762 331L762 403L831 403L831 403L900 403L900 337L900 263L900 329L831 329L831 347L762 347L762 245L692 245L692 329L623 329L623 293L554 293L554 353L485 353L485 413L415 413L415 317L346 317L346 305L277 305L277 287L208 287L208 263L138 263L138 359L69 359L69 389L0 389Z" fill="#6f157b"></path><path d="M0 511L69 511L69 559L138 559L138 517L208 517L208 547L277 547L277 517L346 517L346 499L415 499L415 565L485 565L485 505L554 505L554 565L623 565L623 511L692 511L692 553L762 553L762 499L831 499L831 511L900 511L900 541L900 335L900 401L831 401L831 401L762 401L762 329L692 329L692 383L623 383L623 365L554 365L554 419L485 419L485 443L415 443L415 371L346 371L346 371L277 371L277 365L208 365L208 347L138 347L138 413L69 413L69 419L0 419Z" fill="#89198c"></path><path d="M0 601L69 601L69 601L138 601L138 601L208 601L208 601L277 601L277 601L346 601L346 601L415 601L415 601L485 601L485 601L554 601L554 601L623 601L623 601L692 601L692 601L762 601L762 601L831 601L831 601L900 601L900 601L900 539L900 509L831 509L831 497L762 497L762 551L692 551L692 509L623 509L623 563L554 563L554 503L485 503L485 563L415 563L415 497L346 497L346 515L277 515L277 545L208 545L208 515L138 515L138 557L69 557L69 509L0 509Z" fill="#a41c9b"></path></svg>