<svg id="visual" viewBox="0 0 900 450" width="900" height="450" xmlns="http://www.w3.org/2000/svg" xmlns:xlink="http://www.w3.org/1999/xlink" version="1.1"><rect x="0" y="0" width="900" height="450" fill="#0f0b1d"></rect><defs><linearGradient id="grad1_0" x1="50%" y1="0%" x2="100%" y2="100%"><stop offset="10%" stop-color="#8e1586" stop-opacity="1"></stop><stop offset="90%" stop-color="#8e1586" stop-opacity="1"></stop></linearGradient></defs><defs><linearGradient id="grad1_1" x1="50%" y1="0%" x2="100%" y2="100%"><stop offset="10%" stop-color="#8e1586" stop-opacity="1"></stop><stop offset="90%" stop-color="#56206a" stop-opacity="1"></stop></linearGradient></defs><defs><linearGradient id="grad1_2" x1="50%" y1="0%" x2="100%" y2="100%"><stop offset="10%" stop-color="#2b1b45" stop-opacity="1"></stop><stop offset="90%" stop-color="#56206a" stop-opacity="1"></stop></linearGradient></defs><defs><linearGradient id="grad1_3" x1="50%" y1="0%" x2="100%" y2="100%"><stop offset="10%" stop-color="#2b1b45" stop-opacity="1"></stop><stop offset="90%" stop-color="#0f0b1d" stop-opacity="1"></stop></linearGradient></defs><defs><linearGradient id="grad2_0" x1="0%" y1="0%" x2="50%" y2="100%"><stop offset="10%" stop-color="#8e1586" stop-opacity="1"></stop><stop offset="90%" stop-color="#8e1586" stop-opacity="1"></stop></linearGradient></defs><defs><linearGradient id="grad2_1" x1="0%" y1="0%" x2="50%" y2="100%"><stop offset="10%" stop-color="#56206a" stop-opacity="1"></stop><stop offset="90%" stop-color="#8e1586" stop-opacity="1"></stop></linearGradient></defs><defs><linearGradient id="grad2_2" x1="0%" y1="0%" x2="50%" y2="100%"><stop offset="10%" stop-color="#56206a" stop-opacity="1"></stop><stop offset="90%" stop-color="#2b1b45" stop-opacity="1"></stop></linearGradient></defs><defs><linearGradient id="grad2_3" x1="0%" y1="0%" x2="50%" y2="100%"><stop offset="10%" stop-color="#0f0b1d" stop-opacity="1"></stop><stop offset="90%" stop-color="#2b1b45" stop-opacity="1"></stop></linearGradient></defs><g transform="translate(900, 0)"><path d="M0 337.5C-65.3 332.3 -130.6 327.1 -168.7 292.3C-206.9 257.5 -218 193.1 -241.6 139.5C-265.2 85.9 -301.4 42.9 -337.5 0L0 0Z" fill="#1b1531"></path><path d="M0 253.1C-49 249.2 -97.9 245.3 -126.6 219.2C-155.2 193.1 -163.5 144.9 -181.2 104.6C-198.9 64.4 -226 32.2 -253.1 0L0 0Z" fill="#3f1f58"></path><path d="M0 168.8C-32.6 166.1 -65.3 163.5 -84.4 146.1C-103.5 128.7 -109 96.6 -120.8 69.8C-132.6 42.9 -150.7 21.5 -168.7 0L0 0Z" fill="#711e79"></path><path d="M0 84.4C-16.3 83.1 -32.6 81.8 -42.2 73.1C-51.7 64.4 -54.5 48.3 -60.4 34.9C-66.3 21.5 -75.3 10.7 -84.4 0L0 0Z" fill="#8e1586"></path></g><g transform="translate(0, 450)"><path d="M0 -337.5C61.7 -330.2 123.4 -322.9 168.7 -292.3C214.1 -261.6 243.1 -207.6 268.5 -155C293.9 -102.4 315.7 -51.2 337.5 0L0 0Z" fill="#1b1531"></path><path d="M0 -253.1C46.3 -247.7 92.6 -242.2 126.6 -219.2C160.6 -196.2 182.3 -155.7 201.4 -116.3C220.4 -76.8 236.8 -38.4 253.1 0L0 0Z" fill="#3f1f58"></path><path d="M0 -168.7C30.9 -165.1 61.7 -161.5 84.4 -146.1C107 -130.8 121.5 -103.8 134.2 -77.5C146.9 -51.2 157.8 -25.6 168.8 0L0 0Z" fill="#711e79"></path><path d="M0 -84.4C15.4 -82.6 30.9 -80.7 42.2 -73.1C53.5 -65.4 60.8 -51.9 67.1 -38.8C73.5 -25.6 78.9 -12.8 84.4 0L0 0Z" fill="#8e1586"></path></g></svg>