<svg id="visual" viewBox="0 0 900 450" width="900" height="450" xmlns="http://www.w3.org/2000/svg" xmlns:xlink="http://www.w3.org/1999/xlink" version="1.1"><path d="M0 69L129 55L257 51L386 73L514 73L643 51L771 64L900 42L900 0L771 0L643 0L514 0L386 0L257 0L129 0L0 0Z" fill="#2c0647"></path><path d="M0 172L129 118L257 217L386 217L514 186L643 118L771 132L900 141L900 40L771 62L643 49L514 71L386 71L257 49L129 53L0 67Z" fill="#360850"></path><path d="M0 249L129 186L257 244L386 289L514 226L643 177L771 208L900 168L900 139L771 130L643 116L514 184L386 215L257 215L129 116L0 170Z" fill="#410b59"></path><path d="M0 298L129 258L257 312L386 361L514 330L643 226L771 289L900 231L900 166L771 206L643 175L514 224L386 287L257 242L129 184L0 247Z" fill="#410b59"></path><path d="M0 343L129 289L257 352L386 397L514 366L643 267L771 343L900 276L900 229L771 287L643 224L514 328L386 359L257 310L129 256L0 296Z" fill="#360850"></path><path d="M0 451L129 451L257 451L386 451L514 451L643 451L771 451L900 451L900 274L771 341L643 265L514 364L386 395L257 350L129 287L0 341Z" fill="#2c0647"></path></svg>