<svg id="visual" viewBox="0 0 960 300" width="960" height="300" xmlns="http://www.w3.org/2000/svg" xmlns:xlink="http://www.w3.org/1999/xlink" version="1.1"><rect x="0" y="0" width="960" height="300" fill="#2c0647"></rect><path d="M0 272L11.5 267.2C23 262.3 46 252.7 68.8 247C91.7 241.3 114.3 239.7 137.2 235.2C160 230.7 183 223.3 205.8 223.3C228.7 223.3 251.3 230.7 274.2 229.2C297 227.7 320 217.3 342.8 206.3C365.7 195.3 388.3 183.7 411.2 193.3C434 203 457 234 480 245C503 256 526 247 548.8 243.8C571.7 240.7 594.3 243.3 617.2 235C640 226.7 663 207.3 685.8 205.8C708.7 204.3 731.3 220.7 754.2 234.2C777 247.7 800 258.3 822.8 262.3C845.7 266.3 868.3 263.7 891.2 252.8C914 242 937 223 948.5 213.5L960 204L960 301L948.5 301C937 301 914 301 891.2 301C868.3 301 845.7 301 822.8 301C800 301 777 301 754.2 301C731.3 301 708.7 301 685.8 301C663 301 640 301 617.2 301C594.3 301 571.7 301 548.8 301C526 301 503 301 480 301C457 301 434 301 411.2 301C388.3 301 365.7 301 342.8 301C320 301 297 301 274.2 301C251.3 301 228.7 301 205.8 301C183 301 160 301 137.2 301C114.3 301 91.7 301 68.8 301C46 301 23 301 11.5 301L0 301Z" fill="#650ad8" stroke-linecap="round" stroke-linejoin="miter"></path></svg>